# xmcd CD database file
# Copyright (C) 1997 Ti Kan
#
# Track frame offsets:
#  150
#  14142
#  24957
#  36229
#  47172
#  58893
#  70334
#  81932
#  94620
#  105812
#  114791
#  129260
#  139550
#  150077
#  162540
#  173903
#  185072
#  196462
#  207678
#  220891
#
# Disc length: 3093 seconds
#
# Revision: 1
# Processed by: cddbd v1.4b41PL1 Copyright (c) Steve Scherf et al.
# Submitted via: CDWizzard Release:4.32
#
DISCID=150c1314
DTITLE=Patsy Cline - Platinum Collection [CD1]
DYEAR=1900
DGENRE=
TTITLE0=A Church, A Courtroom And Then Goodbye
TTITLE1=Honkytonk Merry-Go-Round
TTITLE2=Hidin' Out
TTITLE3=I Cried All The Way To The Alter
TTITLE4=I've Loved And Lost Again
TTITLE5=Dear God
TTITLE6=Walkin' After Midnight
TTITLE7=Fingerprints
TTITLE8=A Stranger In My Arms
TTITLE9=Try Again
TTITLE10=Then You'll Know
TTITLE11=Three Cigarettes In An Ashtray
TTITLE12=He Will Do For You
TTITLE13=A Poor Man's Roses (Or A Rich Man's Gold)
TTITLE14=Hungry For Love
TTITLE15=I Can't Forget You
TTITLE16=That Wonderful Someone
TTITLE17=Stop The World
TTITLE18=If I Could See The World (Through The Eyes Of A Child)
TTITLE19=Cry Not For Me
EXTD=Entered By:  videojoc@cyberwar.com
EXTT0=
EXTT1=
EXTT2=
EXTT3=
EXTT4=
EXTT5=
EXTT6=
EXTT7=
EXTT8=
EXTT9=
EXTT10=
EXTT11=
EXTT12=
EXTT13=
EXTT14=
EXTT15=
EXTT16=
EXTT17=
EXTT18=
EXTT19=
PLAYORDER=
